<svg id="Layer_1" data-name="Layer 1" xmlns="http://www.w3.org/2000/svg" viewBox="0 0 197 29"><defs><style>.cls-1{fill:#c6c4c4;}.cls-1,.cls-2,.cls-3,.cls-4{fill-rule:evenodd;}.cls-2{fill:#858585;}.cls-3{fill:#76b94e;}.cls-4{fill:#9a9a9a;}</style></defs><title>logo [Convertido]</title><path class="cls-1" d="M11.34,4.29,5.12,16.21c-.49.93-1.1,1-1.63.12l-3-5.22A2.29,2.29,0,0,1,.26,8.67l2.86-5.5a1.45,1.45,0,0,1,1.57-.94h5.77C11.79,2.23,12.1,3,11.34,4.29Z" transform="translate(0 -0.5)"/><path class="cls-2" d="M34.65,4.29,22.87,27c-.5.94-1.11,1-1.63.13l-3-5.23A2.3,2.3,0,0,1,18,19.49L26.43,3.17A1.45,1.45,0,0,1,28,2.23h5.77C35.1,2.23,35.4,3,34.65,4.29Z" transform="translate(0 -0.5)"/><path class="cls-3" d="M36.11,23.56l-1.78,3.32a1.41,1.41,0,0,1-1.25.88H26.55c-.46,0-1.09-.18-.71-1L31,16.67a1.59,1.59,0,0,1,1.45-.9H42.84c4.66,0,4.75-6.16.06-6.16H36.16c-1,0-1.19-.4-.78-1.28L38,3.07c.32-.65.6-.81,1.51-.84h3.7c14.48,0,15,20.4-1.3,20.57H37.34A1.31,1.31,0,0,0,36.11,23.56Z" transform="translate(0 -0.5)"/><path class="cls-4" d="M23,4.29,11.22,27c-.5.94-1.11,1-1.63.13l-3-5.23a2.28,2.28,0,0,1-.25-2.43L14.78,3.17a1.45,1.45,0,0,1,1.56-.94h5.77C23.44,2.23,23.75,3,23,4.29Z" transform="translate(0 -0.5)"/><path class="cls-3" d="M173.13,10.18a.25.25,0,0,1,.21.25,3.63,3.63,0,0,1-.06.38l-1.46,7.46a1,1,0,0,1-.47.71,7.54,7.54,0,0,1-2.93.77c-1.07,0-1.76-.34-1.76-1.59a3.87,3.87,0,0,1,.07-.86l.73-3.71c.54-2.76,1.5-3.52,3.64-3.52.58,0,1.15,0,1.71.08Zm5.46-2.62c0-.49-.34-.58-.88-.69a31.88,31.88,0,0,0-6.19-.73c-4.32,0-7.74,1.6-8.65,7.13l-.48,2.93a11.52,11.52,0,0,0-.17,1.68c0,3.63,2.18,6.09,4.92,6.09a6.62,6.62,0,0,0,4.35-1.74l-.11,1v.09a.47.47,0,0,0,.51.49h3.53a.65.65,0,0,0,.6-.58l2.54-15.48A.66.66,0,0,0,178.59,7.56Z" transform="translate(0 -0.5)"/><path class="cls-2" d="M91.53,6.82,89.8,16.29c-1,5.75-3.88,7.59-8.1,7.59a9,9,0,0,1-4.29-.83.86.86,0,0,0-.75,0,9.58,9.58,0,0,1-4.31.83A5.52,5.52,0,0,1,66.52,18a8.61,8.61,0,0,1,.15-1.71l1.72-9.47a.77.77,0,0,1,.72-.6H72.7a.49.49,0,0,1,.51.51v.09l-1.73,9.47a9.09,9.09,0,0,0-.15,1.38c0,1.63.84,1.87,2.21,1.87a6.49,6.49,0,0,0,1.19-.08.8.8,0,0,0,.64-.66l2.14-12a.8.8,0,0,1,.72-.63H81.9a.48.48,0,0,1,.48.51v.12l-2.12,11.7a.81.81,0,0,0,.73,1c.25,0,.52,0,.8,0,1.56,0,2.72-.45,3.2-3.25l1.72-9.47a.73.73,0,0,1,.69-.6H91a.51.51,0,0,1,.54.51Z" transform="translate(0 -0.5)"/><path class="cls-2" d="M101.16,1.1l-.51,2.69a.76.76,0,0,1-.71.6H96.05a.46.46,0,0,1-.48-.48V3.79l.51-2.69A.77.77,0,0,1,96.8.5h3.88a.46.46,0,0,1,.48.48ZM100,6.77,97.17,23.3a.77.77,0,0,1-.72.6H92.81a.46.46,0,0,1-.48-.48V23.3L95.19,6.77a.72.72,0,0,1,.68-.6h3.65a.49.49,0,0,1,.51.51Z" transform="translate(0 -0.5)"/><path class="cls-2" d="M110.1,10.14c-2.18,0-2.93,1.21-3.35,3.68l-.39,2.35a11.21,11.21,0,0,0-.15,1.59c0,1.39.54,2.11,2.18,2.11a17,17,0,0,0,1.87-.1.82.82,0,0,0,.72-.68l1.38-7.92a.81.81,0,0,0-.74-1C111.09,10.17,110.54,10.14,110.1,10.14Zm8.84-9-3.7,21.11c-.09.48-.24.69-1.08.87a29.09,29.09,0,0,1-6.48.79c-4,0-6.25-2.56-6.25-6.15a9.35,9.35,0,0,1,.12-1.56l.39-2.35c.92-5.54,3.64-7.71,8.84-7.71a16.16,16.16,0,0,1,1.67.11.81.81,0,0,0,.89-.67l.79-4.44a.73.73,0,0,1,.69-.6h3.59a.51.51,0,0,1,.53.51Z" transform="translate(0 -0.5)"/><path class="cls-2" d="M128.06,10a3.05,3.05,0,0,0-3.13,2.38c-.3,1,.22,1.09.77,1.09h3.84c.42,0,.75-.08.82-.75,0-.2,0-.4,0-.58C130.39,10.78,129.73,10,128.06,10Zm6.69,4-.29,1.75a.77.77,0,0,1-.75.72h-8.87a.83.83,0,0,0-.82.75c0,.17,0,.33,0,.48,0,1.57.74,2.11,2.66,2.11s4.57-.15,5.79-.27h.09c.27,0,.48.12.48.39v.09l-.42,2.29c-.09.48-.21.69-.74.81a24,24,0,0,1-6.28.73c-3.23,0-6.28-1.87-6.28-6.06a11.61,11.61,0,0,1,.15-1.68l.36-2.11c.9-5.24,4-7.92,8.94-7.92,4,0,6.15,2.77,6.15,6.29A10.29,10.29,0,0,1,134.75,14Z" transform="translate(0 -0.5)"/><path class="cls-3" d="M153.35,10.14c-.69,0-1.33,0-1.86.08a.81.81,0,0,0-.73.68l-1.39,7.94a.82.82,0,0,0,.72,1,13.52,13.52,0,0,0,1.37.07c1.89,0,3-.72,3.5-3.7l.39-2.35a11,11,0,0,0,.15-1.57C155.5,10.87,155,10.14,153.35,10.14Zm6.84,3.68-.39,2.35c-.92,5.6-4.06,7.71-8.61,7.71a18.28,18.28,0,0,1-1.9-.12.8.8,0,0,0-.89.67l-.79,4.45a.73.73,0,0,1-.69.6H143.3a.51.51,0,0,1-.53-.51v-.09l3.7-21.12c.09-.48.24-.69,1.08-.87A29.72,29.72,0,0,1,154,6.11c4,0,6.31,2.44,6.31,6.08A10.62,10.62,0,0,1,160.19,13.82Z" transform="translate(0 -0.5)"/><path class="cls-3" d="M197,7l-3,17.14c-.76,4.27-2.68,5.38-8.18,5.38a11.74,11.74,0,0,1-4.7-.81c-.33-.12-.47-.27-.47-.58,0-.06,0-.12,0-.21l1.12-1.75a1,1,0,0,1,1-.58h.06a33.89,33.89,0,0,0,3.61.32c2.06,0,2.5-.21,2.83-2l.06-.33a11.5,11.5,0,0,1-2.42.27c-3.62,0-6.46-2-6.46-6a9.59,9.59,0,0,1,.18-1.78l1.59-9.28a.72.72,0,0,1,.68-.6h3.62a.49.49,0,0,1,.51.51v.09l-1.59,9.28a9.39,9.39,0,0,0-.15,1.45c0,1.83,1,2.32,2.43,2.32a14,14,0,0,0,1.72-.14.81.81,0,0,0,.71-.67l2.08-12.24a.73.73,0,0,1,.69-.6h3.55a.49.49,0,0,1,.51.51Z" transform="translate(0 -0.5)"/></svg>